<?xml version="1.0" standalone="no"?><!DOCTYPE svg PUBLIC "-//W3C//DTD SVG 1.1//EN" "http://www.w3.org/Graphics/SVG/1.1/DTD/svg11.dtd"><svg t="1685111752371" class="icon" viewBox="0 0 3200 3200" version="1.1" xmlns="http://www.w3.org/2000/svg" p-id="2354" xmlns:xlink="http://www.w3.org/1999/xlink" width="200" height="200"><path d="M512.118192 940.762227c237.564627 0 430.132434-192.413288 430.132434-429.801906 0-237.365082-192.567807-429.779394-430.132434-429.779394-237.56565 0-430.134481 192.414311-430.134481 429.779394C81.983711 748.348939 274.552541 940.762227 512.118192 940.762227zM512.118192 416.499949l-185.740308 187.92609c-10.165524 10.212596-25.592888 11.227716-34.477232 2.321882-8.885368-8.950859-7.868201-24.465205 2.298346-34.675754l197.651592-199.905936c5.811356-5.813403 13.304004-8.55484 20.35356-8.245801 6.985088-0.264013 14.410198 2.475378 20.180622 8.266267l197.651592 199.884446c10.141988 10.210549 11.18269 25.746384 2.297322 34.675754-8.886391 8.905834-24.311709 7.891737-34.477232-2.321882L512.118192 416.499949z" fill="#eff1f6" p-id="2355"></path></svg>